<svg xmlns="http://www.w3.org/2000/svg" viewBox="0 0 200 200">
  <!-- Background Circle -->
  <circle cx="100" cy="100" r="90" fill="#4F46E5" />
  <circle cx="100" cy="100" r="80" fill="#4338CA" />
  
  <!-- Document Icons -->
  <g transform="translate(50, 50) scale(0.5)">
    <!-- Base Document -->
    <rect x="50" y="30" width="100" height="130" rx="8" ry="8" fill="white" />
    
    <!-- Document Lines -->
    <line x1="70" y1="60" x2="130" y2="60" stroke="#C7D2FE" stroke-width="6" stroke-linecap="round" />
    <line x1="70" y1="80" x2="130" y2="80" stroke="#C7D2FE" stroke-width="6" stroke-linecap="round" />
    <line x1="70" y1="100" x2="110" y2="100" stroke="#C7D2FE" stroke-width="6" stroke-linecap="round" />
    
    <!-- Document Fold -->
    <path d="M130,30 L150,50 L130,50 Z" fill="#A5B4FC" />
  </g>
  
  <!-- AI Brain Circuit -->
  <g transform="translate(100, 100)">
    <!-- Nodes -->
    <circle cx="-40" cy="-30" r="6" fill="#F9FAFB" />
    <circle cx="0" cy="-45" r="6" fill="#F9FAFB" />
    <circle cx="40" cy="-30" r="6" fill="#F9FAFB" />
    <circle cx="45" cy="10" r="6" fill="#F9FAFB" />
    <circle cx="15" cy="40" r="6" fill="#F9FAFB" />
    <circle cx="-25" cy="35" r="6" fill="#F9FAFB" />
    <circle cx="-45" cy="5" r="6" fill="#F9FAFB" />
    
    <!-- Connections -->
    <line x1="-40" y1="-30" x2="0" y2="-45" stroke="#E0E7FF" stroke-width="2.5" />
    <line x1="0" y1="-45" x2="40" y2="-30" stroke="#E0E7FF" stroke-width="2.5" />
    <line x1="40" y1="-30" x2="45" y2="10" stroke="#E0E7FF" stroke-width="2.5" />
    <line x1="45" y1="10" x2="15" y2="40" stroke="#E0E7FF" stroke-width="2.5" />
    <line x1="15" y1="40" x2="-25" y2="35" stroke="#E0E7FF" stroke-width="2.5" />
    <line x1="-25" y1="35" x2="-45" y2="5" stroke="#E0E7FF" stroke-width="2.5" />
    <line x1="-45" y1="5" x2="-40" y2="-30" stroke="#E0E7FF" stroke-width="2.5" />
    <line x1="-40" y1="-30" x2="40" y2="-30" stroke="#E0E7FF" stroke-width="2.5" />
    <line x1="0" y1="-45" x2="15" y2="40" stroke="#E0E7FF" stroke-width="2.5" />
    <line x1="-45" y1="5" x2="45" y2="10" stroke="#E0E7FF" stroke-width="2.5" />
  </g>
  
  <!-- Outer Ring Pulse Effect -->
  <circle cx="100" cy="100" r="95" fill="none" stroke="#818CF8" stroke-width="3" stroke-dasharray="20,10" />
  
  <!-- Text "AI" Integrated -->
  <text x="100" y="165" font-family="Arial, sans-serif" font-size="24" font-weight="bold" fill="white" text-anchor="middle">AI</text>
</svg>
